<svg width="20" height="20" viewBox="0 0 20 20" fill="none" xmlns="http://www.w3.org/2000/svg">
<path d="M8.75 7.5H7.5V15H8.75V7.5Z" fill="url(#paint0_linear)"/>
<path d="M12.5 7.5H11.25V15H12.5V7.5Z" fill="url(#paint1_linear)"/>
<path d="M2.5 3.75V5H3.75V17.5C3.75 18.1875 4.3125 18.75 5 18.75H15C15.6875 18.75 16.25 18.1875 16.25 17.5V5H17.5V3.75H2.5ZM5 17.5V5H15V17.5H5Z" fill="url(#paint2_linear)"/>
<path d="M12.5 1.25H7.5V2.5H12.5V1.25Z" fill="url(#paint3_linear)"/>
<defs>
<linearGradient id="paint0_linear" x1="2.47338" y1="11.25" x2="17.4834" y2="11.25" gradientUnits="userSpaceOnUse">
<stop stop-color="#0F62FE"/>
<stop offset="1" stop-color="#08BDBA"/>
</linearGradient>
<linearGradient id="paint1_linear" x1="2.47337" y1="11.25" x2="17.4834" y2="11.25" gradientUnits="userSpaceOnUse">
<stop stop-color="#0F62FE"/>
<stop offset="1" stop-color="#08BDBA"/>
</linearGradient>
<linearGradient id="paint2_linear" x1="2.5" y1="11.25" x2="17.5" y2="11.25" gradientUnits="userSpaceOnUse">
<stop stop-color="#0F62FE"/>
<stop offset="1" stop-color="#08BDBA"/>
</linearGradient>
<linearGradient id="paint3_linear" x1="2.45344" y1="1.875" x2="17.3643" y2="1.875" gradientUnits="userSpaceOnUse">
<stop stop-color="#0F62FE"/>
<stop offset="1" stop-color="#08BDBA"/>
</linearGradient>
</defs>
</svg>
