<svg xmlns="http://www.w3.org/2000/svg" xmlns:xlink="http://www.w3.org/1999/xlink" viewBox="0 0 2880 835"><defs><style>.cls-1{opacity:0.26;}.cls-2{fill:url(#linear-gradient);}.cls-3{fill:url(#linear-gradient-2);}.cls-4{fill:url(#linear-gradient-3);}.cls-5{fill:url(#linear-gradient-4);}.cls-6{fill:url(#linear-gradient-5);}.cls-7{fill:url(#linear-gradient-6);}.cls-8{fill:url(#linear-gradient-7);}.cls-9{fill:url(#linear-gradient-8);}.cls-10{fill:url(#linear-gradient-9);}.cls-11{fill:url(#linear-gradient-10);}.cls-12{fill:url(#linear-gradient-11);}.cls-13{fill:url(#linear-gradient-12);}.cls-14{fill:url(#linear-gradient-13);}.cls-15{fill:url(#linear-gradient-14);}.cls-16{fill:url(#linear-gradient-15);}.cls-17{fill:url(#linear-gradient-16);}.cls-18{fill:url(#linear-gradient-17);}.cls-19{fill:url(#linear-gradient-18);}.cls-20{fill:url(#linear-gradient-19);}.cls-21{fill:url(#linear-gradient-20);}.cls-22{fill:url(#linear-gradient-21);}.cls-23{fill:url(#linear-gradient-22);}.cls-24{fill:url(#linear-gradient-23);}.cls-25{fill:url(#linear-gradient-24);}.cls-26{fill:url(#linear-gradient-25);}.cls-27{fill:url(#linear-gradient-26);}.cls-28{fill:url(#linear-gradient-27);}.cls-29{fill:url(#linear-gradient-28);}.cls-30{fill:url(#linear-gradient-29);}.cls-31{fill:url(#linear-gradient-30);}</style><linearGradient id="linear-gradient" x1="8" y1="1" x2="2888" y2="1" gradientUnits="userSpaceOnUse"><stop offset="0"/><stop offset="0.02" stop-color="#050606"/><stop offset="0.04" stop-color="#121717"/><stop offset="0.07" stop-color="#273433"/><stop offset="0.1" stop-color="#455b5b"/><stop offset="0.13" stop-color="#6b8d8d"/><stop offset="0.16" stop-color="#8fbcbb"/><stop offset="0.38" stop-color="#88c0d0"/><stop offset="0.6" stop-color="#81a1c1"/><stop offset="0.81" stop-color="#5e81ac"/><stop offset="1"/></linearGradient><linearGradient id="linear-gradient-2" x1="0.25" y1="29.97" x2="2880.25" y2="29.97" xlink:href="#linear-gradient"/><linearGradient id="linear-gradient-3" x1="0.25" y1="60.51" x2="2880.25" y2="60.51" xlink:href="#linear-gradient"/><linearGradient id="linear-gradient-4" x1="0.25" y1="91.01" x2="2880.25" y2="91.01" xlink:href="#linear-gradient"/><linearGradient id="linear-gradient-5" x1="0.25" y1="121.5" x2="2880.25" y2="121.5" xlink:href="#linear-gradient"/><linearGradient id="linear-gradient-6" x1="0.25" y1="152.01" x2="2880.25" y2="152.01" xlink:href="#linear-gradient"/><linearGradient id="linear-gradient-7" x1="0.25" y1="182.48" x2="2880.25" y2="182.48" xlink:href="#linear-gradient"/><linearGradient id="linear-gradient-8" x1="0.25" y1="212.93" x2="2880.25" y2="212.93" xlink:href="#linear-gradient"/><linearGradient id="linear-gradient-9" x1="0.25" y1="243.46" x2="2880.25" y2="243.46" xlink:href="#linear-gradient"/><linearGradient id="linear-gradient-10" x1="0.25" y1="269.04" x2="2880.25" y2="269.04" xlink:href="#linear-gradient"/><linearGradient id="linear-gradient-11" x1="0.25" y1="299.51" x2="2880.25" y2="299.51" xlink:href="#linear-gradient"/><linearGradient id="linear-gradient-12" x1="0.25" y1="330.04" x2="2880.25" y2="330.04" xlink:href="#linear-gradient"/><linearGradient id="linear-gradient-13" x1="0.25" y1="360.54" x2="2880.25" y2="360.54" xlink:href="#linear-gradient"/><linearGradient id="linear-gradient-14" x1="0.25" y1="391" x2="2880.25" y2="391" xlink:href="#linear-gradient"/><linearGradient id="linear-gradient-15" x1="0.25" y1="421.5" x2="2880.25" y2="421.5" xlink:href="#linear-gradient"/><linearGradient id="linear-gradient-16" x1="0.25" y1="451.11" x2="2880.25" y2="451.11" xlink:href="#linear-gradient"/><linearGradient id="linear-gradient-17" x1="0.25" y1="480.59" x2="2880.25" y2="480.59" xlink:href="#linear-gradient"/><linearGradient id="linear-gradient-18" x1="0.25" y1="513.12" x2="2880.25" y2="513.12" xlink:href="#linear-gradient"/><linearGradient id="linear-gradient-19" x1="0.25" y1="543.72" x2="2880.25" y2="543.72" xlink:href="#linear-gradient"/><linearGradient id="linear-gradient-20" x1="0.25" y1="573.95" x2="2880.25" y2="573.95" xlink:href="#linear-gradient"/><linearGradient id="linear-gradient-21" x1="0.25" y1="603.77" x2="2880.25" y2="603.77" xlink:href="#linear-gradient"/><linearGradient id="linear-gradient-22" x1="-2.75" y1="639.99" x2="2877.25" y2="639.99" xlink:href="#linear-gradient"/><linearGradient id="linear-gradient-23" x1="0.25" y1="670.55" x2="2880.25" y2="670.55" xlink:href="#linear-gradient"/><linearGradient id="linear-gradient-24" x1="0.25" y1="700.99" x2="2880.25" y2="700.99" xlink:href="#linear-gradient"/><linearGradient id="linear-gradient-25" x1="0.25" y1="731.51" x2="2880.25" y2="731.51" xlink:href="#linear-gradient"/><linearGradient id="linear-gradient-26" x1="0.25" y1="762.03" x2="2880.25" y2="762.03" xlink:href="#linear-gradient"/><linearGradient id="linear-gradient-27" x1="0.25" y1="792.46" x2="2880.25" y2="792.46" xlink:href="#linear-gradient"/><linearGradient id="linear-gradient-28" x1="0.25" y1="822.99" x2="2880.25" y2="822.99" xlink:href="#linear-gradient"/><linearGradient id="linear-gradient-29" x1="2746" y1="418" x2="2877" y2="418" gradientUnits="userSpaceOnUse"><stop offset="0.34"/><stop offset="1" stop-opacity="0"/></linearGradient><linearGradient id="linear-gradient-30" x1="5494" x2="5625" gradientTransform="translate(-5496)" xlink:href="#linear-gradient-29"/></defs><title>Lines connected</title><g id="Background_1" data-name="Background 1"><rect x="1" y="1" width="2880" height="834"/></g><g id="Text_1" data-name="Text 1"><g class="cls-1"><polyline class="cls-2" points="8 0.99 80 0.01 151.99 1.62 223.99 1.06 295.98 0.58 367.98 0.04 439.98 0.8 511.97 1.78 583.97 1.75 655.97 0.12 727.97 0.17 799.97 1.45 871.97 0.69 943.97 1.68 1015.97 1.25 1087.96 1.27 1159.96 1.63 1231.96 0.52 1303.96 1.65 1375.96 1.99 1447.96 1.07 1519.96 0.05 1591.96 0.76 1663.96 0.86 1735.96 1.28 1807.96 1.14 1879.96 0.82 1951.96 1.48 2023.96 1.07 2095.96 1.84 2167.95 0.83 2239.96 1.17 2311.96 0.69 2383.96 1.09 2455.97 1.75 2527.97 1.55 2599.97 0.93 2671.97 1.62 2743.98 0.42 2815.99 1.09 2888 1.26"/></g><polyline class="cls-3" points="0.25 30.64 72.25 29.17 144.24 30.4 216.24 29.27 288.23 30.9 360.23 30.07 432.23 30.01 504.22 30.75 576.22 29.05 648.22 29.47 720.22 29.98 792.22 30.77 864.22 29.33 936.22 29.33 1008.22 30.25 1080.21 29.5 1152.21 30.89 1224.21 30.03 1296.21 29.95 1368.21 29.5 1440.21 30.63 1512.21 30.07 1584.21 29.77 1656.21 30.61 1728.21 30.53 1800.21 29.38 1872.21 30.31 1944.21 30.35 2016.21 29.03 2088.21 30.06 2160.2 29.48 2232.21 29.55 2304.21 29.26 2376.21 29.61 2448.22 29.16 2520.22 29.39 2592.22 29.68 2664.22 30.49 2736.23 30.33 2808.24 29.47 2880.25 29.94"/><polyline class="cls-4" points="0.25 60.56 72.25 60.65 144.24 60.66 216.24 61.22 288.23 60.6 360.23 60.38 432.23 61.15 504.22 60.01 576.22 59.52 648.22 61.36 720.22 61.43 792.22 60.15 864.22 59.84 936.22 59.62 1008.22 60.11 1080.21 61.08 1152.21 59.82 1224.21 59.91 1296.21 61.5 1368.21 60.36 1440.21 60.89 1512.21 60.65 1584.21 59.86 1656.21 60.3 1728.21 60.64 1800.21 60.58 1872.21 61.45 1944.21 59.72 2016.21 59.71 2088.21 60.73 2160.2 60.31 2232.21 60.11 2304.21 59.94 2376.21 60.42 2448.22 60.72 2520.22 60.19 2592.22 60.38 2664.22 61.09 2736.23 60.32 2808.24 60.26 2880.25 60.46"/><polyline class="cls-5" points="0.25 91.39 72.25 91.66 144.24 90.93 216.24 91.01 288.23 90.69 360.23 91.84 432.23 91.25 504.22 90.35 576.22 91.47 648.22 91.67 720.22 90.99 792.22 90.4 864.22 91.22 936.22 91.15 1008.22 90.19 1080.21 91.53 1152.21 91.1 1224.21 90.33 1296.21 90.13 1368.21 90.05 1440.21 91.49 1512.21 91.66 1584.21 91.35 1656.21 91.97 1728.21 91.87 1800.21 90.11 1872.21 90.66 1944.21 90.84 2016.21 91.09 2088.21 91.41 2160.2 90.61 2232.21 91.47 2304.21 91.13 2376.21 91.92 2448.22 90.46 2520.22 90.76 2592.22 90.69 2664.22 90.43 2736.23 91.9 2808.24 91.25 2880.25 91.72"/><polyline class="cls-6" points="0.25 120.57 72.25 120.87 144.24 122.46 216.24 121.84 288.23 120.69 360.23 120.83 432.23 121.26 504.22 122.24 576.22 121.05 648.22 120.75 720.22 121.22 792.22 121.88 864.22 120.93 936.22 120.92 1008.22 122.35 1080.21 122.27 1152.21 121.83 1224.21 121.58 1296.21 122.47 1368.21 121.39 1440.21 122.38 1512.21 121.59 1584.21 121.45 1656.21 121.78 1728.21 120.59 1800.21 122.47 1872.21 121.46 1944.21 120.81 2016.21 122.45 2088.21 122.05 2160.2 121.63 2232.21 120.85 2304.21 120.71 2376.21 121.03 2448.22 120.51 2520.22 121.94 2592.22 120.9 2664.22 122.46 2736.23 120.83 2808.24 120.69 2880.25 122.5"/><polyline class="cls-7" points="0.25 151.38 72.25 151.78 144.24 151.79 216.24 151.43 288.23 152.78 360.23 151.88 432.23 151.11 504.22 151.89 576.22 152.84 648.22 152.26 720.22 152.95 792.22 152.4 864.22 151.4 936.22 152.14 1008.22 151.83 1080.21 151.78 1152.21 152.21 1224.21 151.76 1296.21 151.85 1368.21 151.81 1440.21 151.35 1512.21 152.63 1584.21 151.2 1656.21 152.43 1728.21 152.45 1800.21 151.26 1872.21 151.49 1944.21 151.13 2016.21 151.27 2088.21 151.5 2160.2 151.83 2232.21 152.94 2304.21 151.45 2376.21 151.42 2448.22 151.07 2520.22 152.58 2592.22 151.99 2664.22 151.51 2736.23 152.28 2808.24 151.11 2880.25 152.29"/><polyline class="cls-8" points="0.25 182.46 72.25 182.2 144.24 182.29 216.24 183.36 288.23 181.65 360.23 183.45 432.23 182.66 504.22 181.8 576.22 181.79 648.22 182.47 720.22 182.86 792.22 183.08 864.22 181.92 936.22 181.57 1008.22 181.95 1080.21 182.71 1152.21 182.65 1224.21 182.69 1296.21 182.82 1368.21 182.57 1440.21 182.22 1512.21 182.68 1584.21 182.63 1656.21 182.35 1728.21 181.55 1800.21 182.61 1872.21 183.14 1944.21 183.05 2016.21 181.75 2088.21 181.68 2160.2 181.78 2232.21 182.58 2304.21 182.56 2376.21 181.52 2448.22 181.51 2520.22 182.65 2592.22 183.08 2664.22 181.55 2736.23 182.37 2808.24 183.2 2880.25 183.35"/><polyline class="cls-9" points="0.25 213.84 72.25 212.64 144.24 213.78 216.24 212.68 288.23 212.59 360.23 213.03 432.23 213.07 504.22 213.32 576.22 213.19 648.22 212.31 720.22 213.83 792.22 213.85 864.22 213.37 936.22 213.18 1008.22 212.35 1080.21 213.36 1152.21 213.69 1224.21 213.33 1296.21 212 1368.21 213.48 1440.21 212.98 1512.21 212.18 1584.21 212.34 1656.21 212.12 1728.21 213.82 1800.21 212.77 1872.21 213.49 1944.21 213.26 2016.21 213.2 2088.21 212.44 2160.2 212.35 2232.21 213.85 2304.21 212.57 2376.21 212.62 2448.22 212.55 2520.22 213.63 2592.22 212.44 2664.22 213.31 2736.23 212.56 2808.24 212.96 2880.25 213.79"/><polyline class="cls-10" points="0.25 244.11 72.25 244.29 144.24 243.87 216.24 242.61 288.23 243.01 360.23 243.59 432.23 242.57 504.22 243.67 576.22 242.57 648.22 242.81 720.22 244.31 792.22 244.06 864.22 242.6 936.22 242.5 1008.22 242.55 1080.21 242.85 1152.21 242.65 1224.21 243.53 1296.21 243.61 1368.21 243.31 1440.21 243.48 1512.21 244.13 1584.21 243.02 1656.21 242.87 1728.21 243.03 1800.21 244.43 1872.21 243.34 1944.21 243.54 2016.21 242.79 2088.21 243.2 2160.2 242.99 2232.21 243.51 2304.21 243.36 2376.21 243.45 2448.22 244.41 2520.22 243.61 2592.22 243.41 2664.22 243.71 2736.23 243.15 2808.24 243.28 2880.25 242.69"/><polyline class="cls-11" points="0.25 274.88 71.76 273.52 143.28 273.57 214.79 274.48 229.67 269.87 229.92 268.15 244.79 264.24 351.46 264.88 366.96 266.92 387.97 272.43 403.84 274.98 457.98 273.45 512.13 274.16 526.89 269.71 527.63 268.67 542.13 263.16 577.02 264.43 592.07 267.9 592.28 269.68 607.02 273.02 693.68 273.61 708.43 269.65 713.41 268.31 728.17 264.52 795.49 263.11 862.81 264.79 877.09 268.99 879.28 268.96 893.53 273.81 920.04 274.7 934.81 269.71 935.57 268.71 950.04 263.11 984.34 264.84 999.14 268.23 999.99 269.98 1014.93 273.68 1105.99 274.87 1118.97 269.59 1130.57 263.87 1173.59 264.05 1188.89 267.28 1198.16 270.08 1211.33 273.57 1223.83 269.15 1225.09 268.84 1239.46 264.04 1274.36 263.71 1289.31 268.03 1289.41 269.96 1304.36 274.21 1334.5 274.56 1348.59 268.75 1349.72 268.27 1364.5 264.61 1428.59 264.63 1492.68 263.75 1556.77 263.56 1571.68 268.09 1572.55 268.95 1586.77 273.15 1599.96 273.27 1614.3 269.11 1614.98 267.99 1629.96 264.16 1666.04 263.29 1680.57 268.64 1680.24 269.47 1694.86 274.7 1729.53 273.81 1744.01 269.31 1744.98 269.12 1759.15 264.18 1795.74 263.78 1809.79 269.26 1810.63 268.43 1824.42 273.97 1859.31 274.16 1873.08 268.4 1873.54 268.95 1887.83 263.92 1923.98 264.28 1938.62 268.47 1940.01 268.6 1953.98 274.01 1981.87 273.64 1996.61 269.68 1997.26 268.52 2011.87 264.95 2046.76 264.34 2061.4 268.47 2062.17 269.47 2076.76 274.74 2143.12 274.14 2209.48 273.07 2225.11 271.54 2234.81 266.12 2250.57 263.6 2286.49 264.58 2301.91 267.07 2319.14 272.28 2334.98 273.25 2383.9 273.33 2398.75 269.83 2398.81 267.85 2413.9 264.19 2486.14 264.89 2558.39 263.92 2630.64 264.28 2645.8 267.56 2652.04 270.58 2667.27 273.4 2738.26 274.48 2809.26 273.97 2880.25 273.85"/><polyline class="cls-12" points="0.25 303.92 71.76 304.92 143.28 303.65 214.79 304.9 229.24 299.77 229.8 298.48 244.79 295.06 332.16 294.17 419.54 295.5 434.59 298.34 443.17 300.8 458.28 305.02 512.13 304.56 526.45 299.59 527.67 299.23 542.13 295.27 577.02 295.27 591.72 298.89 592.01 300.55 607.02 303.88 644.95 305.46 660.2 301.12 665.88 297.94 681.11 293.61 742.13 295.43 803.16 295.37 864.19 295.44 878.48 299.44 878.94 299.95 893.53 304.22 919.32 304.15 927.68 304.34 934.73 300.1 935.29 298.82 950.04 294.59 984.93 293.82 999.82 298.62 1000.35 299.96 1014.93 303.91 1083.28 303.5 1097.6 299.5 1100.52 298.04 1115.73 295.33 1155.86 293.95 1170.79 298.52 1175.67 300.46 1190.59 305.07 1209.46 305.42 1224.48 300.56 1225.06 299.29 1239.46 295.38 1274.36 293.71 1289.03 298.93 1290.3 299.21 1304.36 303.5 1334.5 304.83 1348.79 299.54 1349.43 298.35 1364.5 294.57 1428.59 294.3 1492.68 294.16 1556.77 293.55 1571.42 298.96 1572.68 299.27 1586.77 305.32 1599.96 303.83 1615.01 300.6 1615.55 299.29 1629.96 294.78 1664.86 295.26 1679.6 298.82 1679.87 300.52 1694.86 304.07 1729.53 304.99 1743.49 299.08 1744.53 298.46 1759.53 295.02 1794.42 294.15 1809.43 298.44 1810.29 299.32 1824.42 304.37 1859.31 304.11 1873.41 299.27 1874.9 299.28 1889.31 294.92 1923.98 294.41 1937.94 299.93 1939.6 299.67 1953.98 304.37 1981.87 304.59 1996.08 299.44 1997.77 299.72 2011.87 293.58 2046.76 295.1 2061.7 298.56 2062.57 299.41 2076.76 305.26 2153.98 305.46 2169.4 301.5 2177.76 298.38 2192.79 295.06 2271.21 294.87 2349.63 293.95 2364.74 298.24 2375.03 300.99 2387.07 305.47 2398.47 299.94 2399.15 298.82 2413.9 293.89 2482.33 295.41 2550.76 293.75 2619.19 295.13 2634.45 298 2636.44 299.72 2650.89 305.39 2727.34 304.32 2803.79 304.37 2880.25 303.67"/><polyline class="cls-13" points="0.25 334.69 71.76 334.53 143.28 335.71 214.79 334.27 229.41 330.51 230.85 330.45 244.79 324.58 279.68 325.93 293.79 330.21 294.98 330.63 309.68 335.99 348 335.16 361.9 329.55 362.29 329.4 377 325.82 450.76 324.58 465.58 329.18 468.9 331.01 483.83 334.03 512.13 335.95 526.52 330.19 527.55 329.56 542.13 325.04 577.02 324.43 592 329 592.69 330.1 607.02 335.24 625.78 334.02 640.68 330.94 642.62 329.66 657.13 325.29 711.66 325.02 726.3 324.75 740.94 325.9 802.38 325.56 863.83 324.97 877.91 330.27 879.97 329.93 894.19 334.19 920.04 335.94 934.85 330.77 935.71 329.9 950.04 324.09 984.93 325.86 999.84 329.09 1000.38 330.41 1014.93 334.52 1060.56 334.4 1075.73 331.39 1078.5 329.68 1093.02 325.45 1133.03 325.31 1147.82 329.25 1152.33 331.46 1167.51 334.39 1209.46 335.7 1223.48 329.67 1225.18 329.97 1239.46 325.88 1274.36 324.18 1288.77 329.79 1289.78 330.45 1304.36 335.27 1334.5 334.31 1349.12 330.49 1350.43 330.26 1364.5 325.13 1399.4 325.19 1414.59 324.09 1429.79 324.62 1493.28 325.73 1556.77 325.84 1571.42 329.45 1571.94 330.81 1586.77 334.08 1599.96 335.1 1615.02 331.12 1615.25 329.36 1629.96 324.9 1664.86 325.62 1678.98 330.19 1679.97 330.88 1694.86 334.06 1729.53 335.8 1743.91 330.17 1744.6 329.07 1759.53 325.76 1794.42 324.17 1808.5 330.25 1809.59 330.8 1824.42 334.06 1859.31 334.07 1873.48 329.87 1874.86 329.72 1889.31 324.09 1923.98 325.27 1939.02 328.91 1939.38 330.47 1953.98 335.48 1981.87 334.08 1996.6 330.66 1997.92 330.44 2011.87 325.25 2046.76 324.92 2061.24 329.7 2062.26 330.35 2076.76 334.85 2124.56 334.69 2139.88 331.66 2142.67 329.05 2157.57 324.63 2234.57 324.96 2250.57 325.86 2295.72 325.37 2311.72 324.14 2349.92 325.44 2365.33 328.16 2367.99 331.67 2383.3 335.92 2383.9 335.48 2397.84 329.55 2398.9 328.96 2413.9 324.9 2516.39 325.37 2532.39 324.72 2540.76 324.7 2556.76 325.12 2602.97 325.96 2617.97 328.9 2619.85 331.08 2634.83 334.1 2716.64 334.51 2798.44 335.07 2880.25 334.95"/><polyline class="cls-14" points="0.25 364.62 71.76 364.94 143.28 365.48 214.79 365.32 228.86 360.23 229.83 359.52 244.79 354.96 279.68 354.86 294.78 359.31 296.18 361.34 310.68 365.33 393.3 365.38 408.29 362.09 411.31 359.28 426.38 356.29 467.03 355.12 481.54 360.16 483.47 360.6 497.81 365.47 512.13 365.46 526.54 360.71 527.45 359.91 542.13 356.05 577.02 356.05 591.47 360.24 592.92 360.28 607.02 365.26 618.18 365.08 632.64 360.79 634.46 360.79 648.52 355.9 683.84 355.21 698.24 360.31 699.41 361.36 714.28 366.08 782.86 364.73 851.45 365.18 920.04 366.4 934.49 360.77 935.9 360.68 950.04 354.59 984.93 355.75 999.58 359.96 999.91 361.56 1014.93 365.5 1037.85 365.68 1052.9 361.7 1055.37 359.5 1070.3 356.21 1110.19 354.7 1125 359.72 1129.98 361.06 1144.68 364.85 1209.46 364.64 1223.81 360.62 1224.54 359.57 1239.46 355.01 1274.36 356.47 1288.52 360.64 1290.1 360.49 1304.36 365.21 1334.5 364.97 1348.68 360.39 1349.53 359.49 1364.5 356.3 1399.4 354.69 1413.52 360.69 1414.61 361.25 1429.4 366.2 1514.68 364.6 1599.96 364.69 1614.37 360.71 1615.67 360.46 1629.96 355.92 1664.86 355.74 1679.63 359.78 1680.04 361.27 1694.86 366.49 1729.53 364.99 1743.85 360.59 1745.54 360.88 1759.53 356.23 1794.42 354.78 1809.09 359.93 1810.09 360.6 1824.42 365.05 1859.31 364.87 1873.27 360.07 1875.36 360.93 1889.31 355.6 1923.98 355.63 1938.43 360.23 1939.78 360.42 1953.98 366.45 1981.87 366.28 1996.05 360.39 1997.9 360.92 2011.87 356 2046.76 355.8 2061.2 360.25 2062.78 360.12 2076.76 364.58 2105.81 365.29 2120.9 361.7 2121.58 359.65 2136.43 355.29 2182.03 355.46 2197.4 358.63 2203.8 361.83 2218.92 364.79 2324.58 365.91 2340.58 366.16 2348.46 364.75 2364.46 364.81 2436.53 365.79 2508.61 366.28 2523 360.63 2525.66 359.68 2540.48 354.8 2586.75 355.7 2601.41 359.95 2604.23 360.62 2618.61 365.91 2684.02 364.93 2749.43 365.08 2814.84 364.9 2880.25 364.65"/><polyline class="cls-15" points="0.25 397 71.76 396.5 143.28 396.37 214.79 396.25 228.93 390.83 230.82 391.41 244.79 385.8 279.68 385.87 294.14 390.73 295.02 391.56 309.68 396.82 409.25 395.45 423.81 391.43 425.12 391.19 439.25 386.92 473.7 385.35 487.8 391.23 489.58 390.86 503.74 396.38 512.13 396.94 526.52 391.19 527.15 389.99 542.13 385.59 577.02 386.35 591.98 390.02 593.08 390.56 607.02 395.02 620.48 395.71 634.95 391.29 636.45 390.81 650.86 385.01 689.56 386.6 704.46 390.09 709.9 392.9 725.29 396.1 790.21 395.23 855.12 395.85 920.04 396.35 934.02 390.61 935.73 390.93 950.04 386.49 984.93 386.56 999.76 390.2 1000.88 390.7 1014.93 395.11 1015.13 396.56 1029.78 391.51 1033.91 390.45 1048.59 386.13 1088.35 386.23 1103.18 390.18 1106.82 392.15 1121.84 395.52 1209.46 395.9 1223.99 391.37 1224.77 390.4 1239.46 385.56 1274.36 385.85 1289.09 390.33 1289.5 391.83 1304.36 396.44 1334.5 396.84 1348.95 391.25 1349.71 390.25 1364.5 385.65 1399.4 385.81 1414.47 389.86 1415.36 390.69 1429.4 395.21 1514.68 395.8 1599.96 395.11 1614.1 390.83 1615.14 390.21 1629.96 386.48 1664.86 386.41 1679.72 390.16 1680.62 390.97 1694.86 396.34 1729.53 395 1743.65 390.82 1744.67 390.17 1759.53 386.77 1794.42 385.98 1809.46 389.9 1810.24 390.89 1824.42 395.18 1859.31 395.75 1873.98 391.56 1874.95 390.85 1889.31 385.46 1923.98 385.9 1938.06 391.26 1939.98 390.64 1953.98 396.84 1981.87 395.95 1996.49 391.51 1997.16 390.38 2011.87 385.33 2046.76 385.62 2060.95 391.1 2061.92 391.81 2076.76 395.14 2094.93 395.83 2109.35 391.23 2110.49 391.39 2124.46 385.93 2162.01 385.03 2176.79 390.25 2179.34 392.46 2194.55 395.42 2268.99 396.25 2343.44 395.26 2417.89 396.34 2492.34 395.23 2506.72 391.12 2508.93 389.45 2524.21 386.61 2570.53 385.46 2585.6 389.79 2587.89 391.31 2602.39 396.53 2671.85 395.91 2741.32 395.41 2810.78 396.12 2880.25 396.22"/><polyline class="cls-16" points="0.25 426.32 71.76 426.8 143.28 426.85 214.79 427.31 229.62 422.3 230.19 421.03 244.79 416.23 279.68 416.41 293.19 422.32 307.68 427.41 403.72 427.33 418.4 422.6 421.5 420.48 436.45 415.73 472.55 417.48 486.91 421.36 488.03 422.1 502.71 426.75 512.13 427.11 526.99 422.35 527.57 421.08 542.13 416.98 577.02 417.46 591.08 421.78 592.41 421.99 607.02 425.56 632.18 426.33 646.64 421.72 650.47 421 665.11 417.47 749.6 415.89 834.09 416.48 849.56 419.37 857.81 424.06 873.47 427.46 920.04 425.93 934.77 422.16 935.77 421.49 950.04 417.21 984.93 416.83 999.25 421.41 999.2 421.94 1011.58 421.2 1025.87 416.13 1083.06 416.14 1097.49 421.31 1100.09 422.49 1115.02 427.28 1209.46 426.97 1223.68 421.44 1224.93 421.12 1239.46 415.94 1274.36 417.15 1288.69 421.39 1289.73 422.01 1304.36 426.84 1334.5 427.33 1348.81 421.56 1350.32 421.61 1364.5 416.41 1435.2 415.53 1505.9 416.48 1519.86 421.92 1521.17 422.15 1535.9 427.41 1599.96 426.12 1614.34 421.67 1615.49 421.21 1629.96 416.82 1664.86 417.01 1678.95 421.73 1680.59 421.51 1694.86 426.68 1729.53 427.16 1743.49 421.08 1745.24 421.46 1759.53 416.9 1794.42 416.21 1808.6 421.61 1810.03 421.69 1824.42 425.59 1859.31 427.17 1873.77 421.78 1875.28 421.82 1889.31 416.19 1923.98 416.47 1938.9 420.58 1939.16 422.28 1953.98 426.64 1981.87 425.71 1996.77 422.4 1997.26 421.02 2011.87 415.54 2046.76 417.07 2061.27 421.15 2062.14 422.01 2076.76 427.11 2089.77 425.72 2104.7 422.4 2104.47 421.33 2118.84 415.97 2153.49 417.33 2167.88 421.35 2169.84 422.22 2184.6 425.7 2257.46 425.95 2330.33 426.44 2403.2 426.73 2476.07 426.05 2490.77 422.13 2492.89 420.33 2507.93 416.05 2554.31 416.78 2569.24 420.51 2571.22 422.52 2586.17 425.82 2659.69 427.09 2733.2 425.77 2806.73 426.74 2880.25 427.18"/><polyline class="cls-17" points="0.25 456.61 71.76 457.3 143.28 456.41 214.79 456.96 229.76 453 229.86 451.06 244.79 446.8 279.68 447.13 294.52 451.23 294.39 452.06 308.68 456.3 378.75 457.91 393.84 453.21 402.48 449.28 418.2 446.12 463.23 446.66 477.92 451.4 480.05 452.23 494.48 456.38 512.13 456.76 526.96 452.79 527.86 451.99 542.13 446.64 577.02 446.06 591.03 452.35 593.09 451.54 607.02 456.41 659.39 456.98 675 454.5 687.69 449.9 703.15 446.61 783.86 447.7 864.58 447.51 879.18 451.52 882.07 452.26 896.54 456.85 920.04 457.03 934.16 451.81 935.22 451.22 950.04 447.23 984.93 447.46 997.09 445.83 1009 444.25 1042.41 446.35 1058.39 447.71 1099.73 447.37 1114.86 450.7 1117.01 452.59 1131.68 457.28 1209.46 456.24 1223.98 452.36 1224.76 451.38 1239.46 446.84 1274.36 447.73 1289.31 451.03 1290.36 451.63 1304.36 456.77 1334.5 457.6 1349.28 452.73 1349.56 451.04 1364.5 447.3 1435.2 446.8 1505.9 446.97 1520.37 451.71 1521.45 452.26 1535.9 456.44 1599.96 457.53 1614.05 451.75 1615.24 451.36 1629.96 446.76 1664.86 447.95 1679.76 451.09 1680.13 452.65 1694.86 456.85 1729.53 456.82 1743.77 451.98 1745.02 451.66 1759.53 447.09 1794.42 447.56 1808.64 452.05 1809.85 452.44 1824.42 457.39 1859.31 456.97 1873.33 451.65 1875.38 452.45 1889.31 446.89 1923.98 446.45 1938.36 451.83 1939.26 452.64 1953.98 456.35 1981.87 456.2 1996.55 452.59 1996.82 450.9 2011.87 446.95 2046.76 447.41 2061.37 451.52 2061.9 452.84 2076.76 456.6 2090.06 456.71 2104.38 452.08 2104.79 451.87 2119.13 447.54 2153.97 446.15 2168.18 452.12 2170.93 451.91 2185.16 456.31 2253.81 456.71 2322.47 456.12 2391.13 456.74 2459.79 457.96 2474.42 452.51 2477.05 451.51 2491.66 447.71 2538.09 447.39 2552.71 451.51 2555.1 452.87 2569.95 457.23 2647.52 457.87 2725.09 457.79 2802.67 456.56 2880.25 457.27"/><polyline class="cls-18" points="0.25 487.35 71.76 487.71 143.28 488.41 214.79 488.02 229.37 482.95 230.42 482.35 244.79 477.93 279.68 476.93 294.72 476.78 309.68 477.57 372.6 478.68 388.57 476.97 389.43 476.87 405.45 477.41 443.51 478.44 458.44 481.49 462.84 482.95 477.46 487.69 512.13 487.77 526.29 482.37 527.5 481.99 542.13 478.09 577.02 476.87 591.99 481.51 592.25 483.22 607.02 488.34 673.64 487.1 740.26 488.2 806.88 486.96 821.4 482.82 824.39 481.7 839.2 477.98 876.11 476.66 891.03 481.57 891.49 483.29 906.31 488.21 920.04 486.6 934.28 482.45 935.17 482.12 950.04 478.92 1019.51 477.11 1035.07 475.36 1038.21 473.93 1049.03 472.77 1058.09 475.93 1072.01 480.77 1113.4 480.61 1128.85 482.9 1133.06 484.19 1148.35 488.23 1209.46 487.74 1224.23 483.21 1224.67 481.75 1239.46 477.52 1274.36 476.79 1289.33 481.5 1290.03 482.6 1304.36 487.12 1334.5 487.73 1349.41 483.4 1349.93 482.07 1364.5 477.91 1399.4 477.81 1414.44 481.4 1414.93 482.79 1429.4 488.15 1514.68 487.86 1599.96 487.31 1614.04 482.25 1615.54 482.27 1629.96 477.45 1664.86 477.63 1679.32 482.22 1679.82 483.59 1694.86 486.52 1729.53 487.75 1743.69 482.37 1744.45 481.36 1759.53 478.21 1794.42 476.62 1808.66 482.53 1810.27 482.35 1824.42 487.05 1859.31 487.47 1873.27 482.07 1874.7 482.01 1889.31 477.24 1923.98 477.39 1939.05 481.37 1939.04 483.46 1953.98 487.09 1981.87 488.16 1996.82 483.47 1997.59 482.48 2011.87 476.54 2046.76 478.39 2061.08 482.42 2062.3 482.79 2076.76 487.61 2095.8 488.26 2110.11 482.58 2111.34 482.74 2125.41 476.88 2163.55 477.07 2178.43 481.58 2181.88 482.8 2196.39 487.73 2278.77 486.63 2361.14 487.89 2443.52 487.55 2458.28 483.22 2460.32 481.29 2475.39 476.7 2521.87 478.26 2536.78 481.55 2539.22 482.81 2553.73 487.81 2619.03 487.77 2684.33 487.43 2749.64 487.39 2814.94 488.27 2880.25 488.04"/><polyline class="cls-19" points="0.25 518.05 71.76 517.62 143.28 518.04 214.79 517.37 229.42 513.52 230.75 513.32 244.79 508.17 323.62 507.88 402.45 508.42 418.28 509.85 430.7 515.65 446.35 518.01 512.13 517.08 526.77 513.53 527.29 512.19 542.13 508.75 577.02 507.51 592.08 511.88 592.95 512.75 607.02 517.78 674.14 517.18 741.27 517.4 808.39 518.8 823.39 514.1 825.18 512.12 840.04 508.54 876.45 507.79 891.29 512.18 892.38 512.92 906.59 517.25 920.04 518.92 934.06 512.67 935.34 512.38 950.04 508.88 996.72 508.58 1011.46 512.33 1015.07 514.34 1030.2 518.25 1059.64 518.96 1072.59 512.43 1086.57 507.27 1128.06 507.99 1143.45 511.1 1150.13 513.87 1165.02 517.55 1209.46 517.13 1223.54 512.74 1224.66 512.24 1239.46 507.63 1274.36 507.41 1288.98 512.49 1290.25 512.79 1304.36 518.93 1334.5 518.28 1348.85 513.12 1350 512.66 1364.5 507.9 1399.4 508.04 1413.76 512.86 1414.35 514.1 1429.4 517.74 1514.68 517.9 1599.96 518.04 1614.37 513.21 1616.01 512.74 1630.46 508.7 1666 507.37 1680.46 512.73 1682.46 512.89 1696.66 518.87 1727.72 517.65 1742.65 513.97 1743.95 512.78 1758.38 507.38 1795.57 507.61 1810.64 511.82 1811.96 513 1826.23 518.41 1857.4 517.33 1872.58 514.33 1873.43 512.39 1888.12 507.29 1923.48 508.07 1938.35 512.14 1938.97 514.08 1953.98 518.52 1981.87 518.69 1995.98 512.8 1997.71 513.15 2011.87 507.58 2046.76 508.79 2061 513.03 2061.8 513.99 2076.76 517.05 2107.64 517.33 2122.63 514.06 2123.96 512.66 2138.47 508.93 2185.31 508.81 2200.45 511.65 2208.84 514.25 2223.93 517.67 2320.36 517.8 2336.36 518.02 2350.75 517.95 2366.75 517.78 2427.24 517.94 2441.94 513.62 2444.73 512.87 2459.11 508.49 2505.65 508.21 2520.08 512.8 2522.76 513.7 2537.51 517.38 2606.05 518.38 2674.6 518.48 2743.15 517.86 2811.7 517.45 2880.25 518.75"/><polyline class="cls-20" points="0.25 548.19 71.76 548.1 143.28 549.23 214.79 547.55 229.44 544.05 230.84 543.94 244.79 539.14 279.68 538.62 294.15 543.21 295.21 543.79 309.68 548.16 377.16 549.4 444.65 548.62 512.13 548.08 526.59 543.79 527.7 543.27 542.13 537.5 577.02 537.63 591.05 543.83 592.57 543.77 607.02 547.56 636.26 548.36 651.34 544.63 652.14 543.69 666.26 538.5 732.73 537.87 799.19 538.55 865.66 538.39 880.58 542.53 882.77 544.12 897.46 548.65 920.04 547.58 934.29 543.43 936.05 542.92 951.04 539.15 985.93 539.14 1000.1 544.1 1000 544.89 1014.93 549.94 1076.2 549.27 1091.17 545.04 1092.66 543.94 1108.13 540.28 1149.73 540.92 1165.02 544.29 1166.25 545.51 1181.68 548.12 1209.46 547.63 1223.97 543.85 1225.15 543.42 1239.46 538.58 1274.36 539.4 1288.59 543.53 1289.72 544.03 1304.36 548.23 1334.5 549.27 1349.1 543.98 1350.22 543.47 1364.5 537.91 1428.59 537.77 1492.68 538.22 1556.77 537.55 1571.72 542.54 1571.96 544.28 1586.77 549 1607.93 548.5 1622.59 543.96 1624.04 543.82 1639.33 540.95 1695.4 541.14 1707.52 545 1716.56 544.29 1729 540.44 1825.62 540.07 1838.04 545.19 1849.51 544.82 1863 541.46 1914.61 539.91 1929.93 543.76 1931.33 544.01 1946.01 549.03 1981.87 548.57 1995.91 543.2 1997.13 542.83 2011.87 538.51 2046.76 538.61 2061.25 543.18 2062.18 543.96 2076.76 549.34 2127.1 547.93 2141.69 543.9 2145.37 542.17 2160.49 539.14 2243.97 537.53 2259.97 537.72 2281.99 538.48 2297.99 538.62 2351.91 539.25 2367.22 541.83 2370.27 544.68 2385.3 549.17 2410.97 547.65 2425.66 544.11 2428.2 542.97 2442.84 537.69 2506.85 538.69 2570.87 538.62 2634.89 539.49 2649.42 543.11 2649.86 544.57 2664.89 548.72 2736.67 547.94 2808.46 548.58 2880.25 549.18"/><polyline class="cls-21" points="0.25 579.01 71.76 579.08 143.28 578.64 214.79 578.79 229.14 574.13 230.41 573.83 244.79 569.46 279.68 569.05 293.72 574.31 294.79 574.88 309.68 579.11 377.16 579.53 444.65 579.81 512.13 579.93 527.13 575.04 527.43 573.39 542.13 568.19 577.02 569.05 591.5 573.69 592.02 575.04 607.02 578.84 636.26 578.57 650.54 574.02 652.1 574.14 666.26 569.04 751.63 569.39 836.99 568.07 852.4 572.03 860.43 574.98 875.4 579.89 920.04 578.21 934.44 574.2 935.1 573.06 950.04 569.6 984.93 568.66 1000.09 572.69 1000.87 575.18 1015.93 578.04 1093.77 578.36 1107.93 573.83 1109.61 572.78 1124.7 569.04 1166.4 568.48 1181.46 572.79 1183.11 575.49 1198.35 578.07 1209.46 578.53 1223.88 574.22 1225.3 574.13 1239.46 568.88 1274.36 569.32 1289.11 573.31 1290.06 574.06 1304.36 579.15 1334.5 579.43 1348.51 573.65 1349.73 573.28 1364.5 569.2 1428.59 568.95 1492.68 568.77 1556.77 568.15 1570.94 574.14 1572.19 574.45 1586.77 579.31 1627.44 578.02 1643.2 576.88 1648.71 574.46 1663.95 571.9 1760.26 571.46 1773.01 567.97 1780.88 568.23 1793.91 571.67 1889.99 570.23 1905.42 573.98 1910.98 576.28 1926.51 578.26 1981.87 578.3 1996.8 574.93 1996.83 572.91 2011.87 568.22 2046.76 569.68 2060.73 574.41 2061.95 574.77 2076.76 578.06 2158.12 579.56 2173.54 576.01 2182.41 571.3 2198.12 569.09 2271.11 569.03 2344.1 568.33 2359.63 571.69 2370.32 576.85 2386.06 578.44 2394.7 579.5 2408.99 573.98 2411.66 573.04 2426.57 569.68 2496 568.91 2565.44 569.38 2634.89 568.19 2649.69 573.24 2650.36 574.37 2664.89 579.3 2736.67 578.84 2808.46 579.11 2880.25 578.73"/><polyline class="cls-22" points="0.25 609.3 71.76 609.55 143.28 609.08 214.79 609.66 228.94 604.34 230.34 604.23 244.79 600.3 279.68 600.08 294.59 603.59 295.64 604.2 309.68 609.83 377.16 610.24 444.65 609.97 512.13 609.53 527.05 605.43 527.53 604.02 542.13 598.56 577.02 600.04 591.57 604.09 592.81 604.44 607.02 609.13 636.6 608.62 651.18 604.95 652.61 603.74 667.4 599.84 727.2 599.79 787 600.13 802.44 603.07 806.18 605.92 821.11 609.66 920.03 608.94 934.25 604.44 934.9 605.16 949.04 599.85 983.85 599.33 998.43 604.58 1000.71 604.7 1015.15 608.76 1108.68 608.64 1123.13 604.76 1125.01 603.03 1139.23 597.51 1183.23 597.07 1197.82 602.55 1201.62 605.22 1212.92 609.06 1223.79 604.59 1224.44 603.44 1239.46 599.97 1274.36 599.55 1288.35 604.88 1290.31 604.2 1304.36 610.11 1334.5 609.08 1348.84 604.6 1349.85 603.95 1364.5 600.03 1428.59 600.22 1492.68 600 1556.77 599.77 1570.88 604.72 1572.03 605.17 1586.77 608.56 1680.75 610.26 1696.64 608.14 1730.58 601.14 1746.31 598.84 1811.5 598.35 1827.21 601.18 1857.6 606.84 1873.19 609.36 1927.53 610.48 1981.87 610.14 1996.61 605.17 1997.88 604.88 2011.87 600.21 2046.76 600.43 2061.56 603.75 2062.83 604.05 2076.76 609.07 2149.49 610.05 2222.22 609.97 2236.89 605.03 2241.64 603.58 2256.53 599.53 2285.47 598.99 2300.33 603.68 2306.27 606.8 2321.85 609.85 2379.23 609.11 2394.39 605.89 2403.47 602.49 2418.89 600.41 2490.89 598.68 2562.89 600.19 2634.89 599.63 2649.08 604.58 2650.26 604.84 2664.77 609.42 2736.59 609.63 2808.42 608.55 2880.25 609.33"/><polyline class="cls-23" points="-2.75 639.98 69.25 639.43 141.24 639.76 213.24 639.76 285.23 639.2 357.23 639.02 429.23 639.17 501.22 640.69 573.22 639.53 645.22 640.12 717.22 640.75 789.22 640.86 861.22 640.78 933.22 639.24 1005.22 640.43 1077.21 640.06 1149.21 639.31 1221.21 640.9 1293.21 640.33 1365.21 640.96 1437.21 640.77 1509.21 640.19 1581.21 640.67 1653.21 639.82 1725.21 639.03 1797.21 639.94 1869.21 639.36 1941.21 640.67 2013.21 640.65 2085.21 639.85 2157.2 639.61 2229.21 639.73 2301.21 640.92 2373.21 639.99 2445.22 639.45 2517.22 640.12 2589.22 640.75 2661.22 640.17 2733.23 639.78 2805.24 639.75 2877.25 640.58"/><polyline class="cls-24" points="0.25 669.9 72.25 670.38 144.24 670.53 216.24 669.79 288.23 670.73 360.23 671.29 432.23 669.68 504.22 671.16 576.22 670.14 648.22 669.64 720.22 671.4 792.22 669.61 864.22 671.07 936.22 670.51 1008.22 670.22 1080.21 671.4 1152.21 670.26 1224.21 670.94 1296.21 669.71 1368.21 671.48 1440.21 670.66 1512.21 671.29 1584.21 669.74 1656.21 671.38 1728.21 671.43 1800.21 670.22 1872.21 670.49 1944.21 669.74 2016.21 669.62 2088.21 670.25 2160.2 670.73 2232.21 670.3 2304.21 670.37 2376.21 670.36 2448.22 670.74 2520.22 671.03 2592.22 669.64 2664.22 670.54 2736.23 671.27 2808.24 670.96 2880.25 670.32"/><polyline class="cls-25" points="0.25 701.31 72.25 700.52 144.24 700.32 216.24 701.34 288.23 700.8 360.23 701.84 432.23 701.05 504.22 701.7 576.22 701.41 648.22 701.79 720.22 701.08 792.22 700.99 864.22 701.4 936.22 700.89 1008.22 701.37 1080.21 700.37 1152.21 701.61 1224.21 700.77 1296.21 700.37 1368.21 701.49 1440.21 701.86 1512.21 700.55 1584.21 701.13 1656.21 701.45 1728.21 701.6 1800.21 701.09 1872.21 701.19 1944.21 700.68 2016.21 700.58 2088.21 701.21 2160.2 700.41 2232.21 701.38 2304.21 700.13 2376.21 700.66 2448.22 700.95 2520.22 700.79 2592.22 700.86 2664.22 701.83 2736.23 700.56 2808.24 700.85 2880.25 701.37"/><polyline class="cls-26" points="0.25 731.46 72.25 730.9 144.24 731.29 216.24 732.43 288.23 732.03 360.23 730.82 432.23 732.22 504.22 731.39 576.22 730.77 648.22 731.32 720.22 730.93 792.22 730.53 864.22 730.53 936.22 731.44 1008.22 730.84 1080.21 732.49 1152.21 731.89 1224.21 732.17 1296.21 730.61 1368.21 731.14 1440.21 731.9 1512.21 731.4 1584.21 731.64 1656.21 731.42 1728.21 731.57 1800.21 732.45 1872.21 731.58 1944.21 731.16 2016.21 730.77 2088.21 731.77 2160.2 732 2232.21 732.1 2304.21 731.69 2376.21 730.56 2448.22 731.19 2520.22 732.37 2592.22 731.57 2664.22 732.07 2736.23 731.86 2808.24 731.41 2880.25 731.99"/><polyline class="cls-27" points="0.25 761.96 72.25 762.89 144.24 762.36 216.24 761.43 288.23 761.24 360.23 762.38 432.23 761.98 504.22 762.45 576.22 762.34 648.22 761.67 720.22 761.08 792.22 761.33 864.22 761.94 936.22 761.15 1008.22 761.56 1080.21 761.82 1152.21 761.44 1224.21 761.95 1296.21 761.36 1368.21 762.1 1440.21 761.42 1512.21 761.99 1584.21 762.93 1656.21 762.21 1728.21 761.13 1800.21 761.21 1872.21 762.62 1944.21 761.88 2016.21 761.33 2088.21 762.29 2160.2 762.42 2232.21 762.69 2304.21 761.49 2376.21 762.25 2448.22 762.98 2520.22 761.65 2592.22 761.67 2664.22 761.63 2736.23 761.39 2808.24 761.91 2880.25 762.25"/><polyline class="cls-28" points="0.25 792.72 72.25 793.25 144.24 792.71 216.24 791.76 288.23 791.99 360.23 792.42 432.23 792.12 504.22 791.77 576.22 792.89 648.22 792.22 720.22 792.53 792.22 792.9 864.22 793.4 936.22 791.76 1008.22 791.79 1080.21 793.3 1152.21 793.35 1224.21 791.51 1296.21 792.9 1368.21 791.86 1440.21 793.12 1512.21 793.26 1584.21 792.47 1656.21 793.36 1728.21 792.01 1800.21 792.3 1872.21 792.55 1944.21 791.56 2016.21 793.38 2088.21 792.19 2160.2 792.28 2232.21 792.13 2304.21 792.34 2376.21 793.18 2448.22 792.64 2520.22 791.94 2592.22 793.02 2664.22 792.58 2736.23 792.94 2808.24 792.42 2880.25 793.4"/><polyline class="cls-29" points="0.25 822.86 72.25 822.16 144.24 823.51 216.24 822.07 288.23 822.11 360.23 822.04 432.23 822.01 504.22 823.1 576.22 822.29 648.22 823.88 720.22 822.94 792.22 823.06 864.22 822.32 936.22 822.5 1008.22 822.2 1080.21 823.41 1152.21 823.17 1224.21 823.84 1296.21 822.93 1368.21 822.6 1440.21 822.04 1512.21 823.37 1584.21 823.87 1656.21 823.96 1728.21 822.95 1800.21 822.55 1872.21 823.3 1944.21 823.13 2016.21 822.78 2088.21 822.18 2160.2 822.72 2232.21 823.59 2304.21 822.23 2376.21 822.61 2448.22 823.49 2520.22 823.62 2592.22 822.41 2664.22 823.84 2736.23 822.66 2808.24 823.12 2880.25 822.85"/><rect class="cls-30" x="2746" y="1" width="131" height="834" transform="translate(5623 836) rotate(180)"/><rect class="cls-31" x="-2" y="1" width="131" height="834"/></g></svg>